<?xml version="1.0" encoding="UTF-8" standalone="no"?>
<svg
   width="465"
   height="135"
   version="1.1"
   id="svg6"
   sodipodi:docname="splash.svg"
   inkscape:version="1.2.2 (b0a8486541, 2022-12-01)"
   xmlns:inkscape="http://www.inkscape.org/namespaces/inkscape"
   xmlns:sodipodi="http://sodipodi.sourceforge.net/DTD/sodipodi-0.dtd"
   xmlns="http://www.w3.org/2000/svg"
   xmlns:svg="http://www.w3.org/2000/svg">
  <defs
     id="defs6" />
  <sodipodi:namedview
     id="namedview6"
     pagecolor="#ffffff"
     bordercolor="#000000"
     borderopacity="0.25"
     inkscape:showpageshadow="2"
     inkscape:pageopacity="0.0"
     inkscape:pagecheckerboard="0"
     inkscape:deskcolor="#d1d1d1"
     inkscape:zoom="5.7123413"
     inkscape:cx="237.20572"
     inkscape:cy="85.42907"
     inkscape:window-width="3840"
     inkscape:window-height="2058"
     inkscape:window-x="0"
     inkscape:window-y="0"
     inkscape:window-maximized="1"
     inkscape:current-layer="svg6"
     showgrid="false">
    <inkscape:grid
       type="xygrid"
       id="grid1063"
       originx="0"
       originy="0" />
  </sodipodi:namedview>
  <rect
     width="124"
     height="124"
     x="2"
     y="2"
     fill="#363d52"
     stroke="#212532"
     stroke-width="4"
     rx="14"
     id="rect1"
     style="display:none;fill:#000000;stroke:#ffffff"
     sodipodi:insensitive="true" />
  <g
     inkscape:groupmode="layer"
     id="layer2"
     inkscape:label="Layer 2" />
  <rect
     style="fill:#000000;stroke-width:1.95741"
     id="rect289"
     width="465"
     height="135"
     x="0"
     y="0" />
  <g
     aria-label="&gt;"
     transform="matrix(-0.7202666,0,0,1.0573031,8.3460117,7.7820597)"
     id="text6"
     style="font-size:154.685px;line-height:193.357px;font-family:System-ui;-inkscape-font-specification:System-ui;letter-spacing:0px;display:inline;stroke:#ffffff;stroke-width:0;paint-order:fill markers stroke">
    <path
       d="M -113.36634,75.609259 -66.537872,56.575753 -113.36634,35.200824 V 12.768478 l 76.360613,38.218071 v 12.991123 l -76.360613,33.912873 z"
       style="font-weight:800;font-family:'Open Sans';-inkscape-font-specification:'Open Sans Ultra-Bold';text-align:center;text-anchor:middle;fill:#ffffff"
       id="path343" />
  </g>
  <g
     inkscape:groupmode="layer"
     id="layer1"
     inkscape:label="Layer 1"
     style="display:inline"
     transform="translate(250,50)">
    <g
       id="g1322"
       transform="translate(15,-10)"
       style="display:inline"
       inkscape:label="F1">
      <rect
         style="fill:#ffffff"
         id="rect1066"
         width="5"
         height="5"
         x="15"
         y="25" />
      <rect
         style="fill:#ffffff"
         id="rect1120"
         width="5"
         height="5"
         x="25"
         y="25" />
      <rect
         style="fill:#ffffff"
         id="rect1124"
         width="5"
         height="5"
         x="15"
         y="35" />
      <rect
         style="fill:#ffffff"
         id="rect1126"
         width="5"
         height="5"
         x="25"
         y="35" />
      <rect
         style="fill:#ffffff"
         id="rect1130"
         width="5"
         height="5"
         x="15"
         y="45" />
      <rect
         style="fill:#ffffff"
         id="rect1132"
         width="5"
         height="5"
         x="25"
         y="45" />
      <rect
         style="fill:#ffffff"
         id="rect1148"
         width="5"
         height="5"
         x="15"
         y="55" />
      <rect
         style="fill:#ffffff"
         id="rect1150"
         width="5"
         height="5"
         x="25"
         y="55" />
      <rect
         style="fill:#ffffff"
         id="rect1460"
         width="5"
         height="5"
         x="35"
         y="25" />
      <rect
         style="fill:#ffffff"
         id="rect1462"
         width="5"
         height="5"
         x="35"
         y="35" />
      <rect
         style="fill:#ffffff"
         id="rect1464"
         width="5"
         height="5"
         x="35"
         y="45" />
      <rect
         style="fill:#ffffff"
         id="rect1466"
         width="5"
         height="5"
         x="35"
         y="55" />
    </g>
    <g
       id="g1390"
       transform="translate(45,-10)"
       inkscape:label="F2"
       style="display:inline">
      <rect
         style="fill:#ffffff"
         id="rect1358"
         width="5"
         height="5"
         x="15"
         y="25" />
      <rect
         style="fill:#ffffff"
         id="rect1360"
         width="5"
         height="5"
         x="25"
         y="25" />
      <rect
         style="fill:#ffffff"
         id="rect1362"
         width="5"
         height="5"
         x="20"
         y="30" />
      <rect
         style="fill:#ffffff"
         id="rect1364"
         width="5"
         height="5"
         x="15"
         y="35" />
      <rect
         style="fill:#ffffff"
         id="rect1366"
         width="5"
         height="5"
         x="25"
         y="35" />
      <rect
         style="fill:#ffffff"
         id="rect1368"
         width="5"
         height="5"
         x="20"
         y="40" />
      <rect
         style="fill:#ffffff"
         id="rect1370"
         width="5"
         height="5"
         x="15"
         y="45" />
      <rect
         style="fill:#ffffff"
         id="rect1372"
         width="5"
         height="5"
         x="25"
         y="45" />
      <rect
         style="fill:#ffffff"
         id="rect1374"
         width="5"
         height="5"
         x="20"
         y="50" />
      <rect
         style="fill:#ffffff"
         id="rect1376"
         width="5"
         height="5"
         x="30"
         y="50" />
      <rect
         style="fill:#ffffff"
         id="rect1378"
         width="5"
         height="5"
         x="30"
         y="40" />
      <rect
         style="fill:#ffffff;stroke-width:0.912871"
         id="rect1380"
         width="5"
         height="5"
         x="30"
         y="30" />
      <rect
         style="fill:#ffffff"
         id="rect1382"
         width="5"
         height="5"
         x="15"
         y="55" />
      <rect
         style="fill:#ffffff"
         id="rect1384"
         width="5"
         height="5"
         x="25"
         y="55" />
      <rect
         style="fill:#ffffff"
         id="rect1468"
         width="5"
         height="5"
         x="35"
         y="25" />
      <rect
         style="fill:#ffffff"
         id="rect1470"
         width="5"
         height="5"
         x="35"
         y="35" />
      <rect
         style="fill:#ffffff"
         id="rect1472"
         width="5"
         height="5"
         x="35"
         y="45" />
      <rect
         style="fill:#ffffff"
         id="rect1474"
         width="5"
         height="5"
         x="35"
         y="55" />
    </g>
    <g
       id="g1424"
       transform="translate(79.5,-10)"
       inkscape:label="F3"
       style="display:inline">
      <rect
         style="fill:#ffffff;stroke-width:1.73204"
         id="rect1392"
         width="15"
         height="5"
         x="10.5"
         y="25" />
      <rect
         style="fill:#ffffff;stroke-width:1.41421"
         id="rect1394"
         width="10"
         height="5"
         x="25"
         y="25" />
      <rect
         style="fill:#ffffff"
         id="rect1396"
         width="5"
         height="5"
         x="20.5"
         y="30" />
      <rect
         style="fill:#ffffff;stroke-width:1.73204"
         id="rect1398"
         width="15"
         height="5"
         x="10.5"
         y="35" />
      <rect
         style="fill:#ffffff;stroke-width:1.41421"
         id="rect1400"
         width="10"
         height="5"
         x="25"
         y="35" />
      <rect
         style="fill:#ffffff"
         id="rect1402"
         width="5"
         height="5"
         x="20.5"
         y="40" />
      <rect
         style="fill:#ffffff;stroke-width:1.73204"
         id="rect1404"
         width="15"
         height="5"
         x="10.5"
         y="45" />
      <rect
         style="fill:#ffffff;stroke-width:1.41421"
         id="rect1406"
         width="10"
         height="5"
         x="25"
         y="45" />
      <rect
         style="fill:#ffffff"
         id="rect1408"
         width="5"
         height="5"
         x="20.5"
         y="50" />
      <rect
         style="fill:#ffffff"
         id="rect1410"
         width="5"
         height="5"
         x="30"
         y="50" />
      <rect
         style="fill:#ffffff"
         id="rect1412"
         width="5"
         height="5"
         x="30"
         y="40" />
      <rect
         style="fill:#ffffff;stroke-width:0.912871"
         id="rect1414"
         width="5"
         height="5"
         x="30"
         y="30" />
      <rect
         style="fill:#ffffff;stroke-width:1.73204"
         id="rect1416"
         width="15"
         height="5"
         x="10.5"
         y="55" />
      <rect
         style="fill:#ffffff;stroke-width:1.41421"
         id="rect1418"
         width="10"
         height="5"
         x="25"
         y="55" />
      <rect
         style="fill:#ffffff"
         id="rect1476"
         width="5"
         height="5"
         x="10.5"
         y="30" />
      <rect
         style="fill:#ffffff"
         id="rect1478"
         width="5"
         height="5"
         x="10.5"
         y="40" />
      <rect
         style="fill:#ffffff"
         id="rect1480"
         width="5"
         height="5"
         x="10.5"
         y="50" />
    </g>
    <g
       id="g1458"
       transform="matrix(1,0,0,0.875,105,-6.875)"
       inkscape:label="F4"
       style="display:inline">
      <rect
         style="fill:#ffffff;stroke-width:5.65685"
         id="rect1426"
         width="20"
         height="40"
         x="15"
         y="25" />
    </g>
  </g>
  <text
     xml:space="preserve"
     style="font-size:32px;text-align:center;text-anchor:middle;fill:#000000"
     x="285.50781"
     y="52.3125"
     id="text477"><tspan
       sodipodi:role="line"
       id="tspan475"
       x="285.50781"
       y="52.3125"
       style="font-style:normal;font-variant:normal;font-weight:normal;font-stretch:normal;font-family:opensans;-inkscape-font-specification:opensans;fill:#ffffff">godot-console</tspan></text>
  <g
     id="g937"
     transform="matrix(0.44829036,0,0,0.44829036,84.945173,17.197039)">
    <g
       stroke-width="9.92746"
       transform="matrix(0.10073078,0,0,0.10073078,93.544105,-1.673816)"
       id="g715">
      <path
         d="m 0,0 c 0,0 -0.325,1.994 -0.515,1.976 l -36.182,-3.491 c -2.879,-0.278 -5.115,-2.574 -5.317,-5.459 l -0.994,-14.247 -27.992,-1.997 -1.904,12.912 c -0.424,2.872 -2.932,5.037 -5.835,5.037 h -38.188 c -2.902,0 -5.41,-2.165 -5.834,-5.037 l -1.905,-12.912 -27.992,1.997 -0.994,14.247 c -0.202,2.886 -2.438,5.182 -5.317,5.46 l -36.2,3.49 c -0.187,0.018 -0.324,-1.978 -0.511,-1.978 l -0.049,-7.83 30.658,-4.944 1.004,-14.374 c 0.203,-2.91 2.551,-5.263 5.463,-5.472 l 38.551,-2.75 c 0.146,-0.01 0.29,-0.016 0.434,-0.016 2.897,0 5.401,2.166 5.825,5.038 l 1.959,13.286 h 28.005 l 1.959,-13.286 c 0.423,-2.871 2.93,-5.037 5.831,-5.037 0.142,0 0.284,0.005 0.423,0.015 l 38.556,2.75 c 2.911,0.209 5.26,2.562 5.463,5.472 l 1.003,14.374 30.645,4.966 z"
         fill="#ffffff"
         transform="matrix(4.162611,0,0,-4.162611,919.24059,771.67186)"
         id="path699" />
      <path
         d="m 0,0 v -47.514 -6.035 -5.492 c 0.108,-0.001 0.216,-0.005 0.323,-0.015 l 36.196,-3.49 c 1.896,-0.183 3.382,-1.709 3.514,-3.609 l 1.116,-15.978 31.574,-2.253 2.175,14.747 c 0.282,1.912 1.922,3.329 3.856,3.329 h 38.188 c 1.933,0 3.573,-1.417 3.855,-3.329 l 2.175,-14.747 31.575,2.253 1.115,15.978 c 0.133,1.9 1.618,3.425 3.514,3.609 l 36.182,3.49 c 0.107,0.01 0.214,0.014 0.322,0.015 v 4.711 l 0.015,0.005 V 0 c 5.09692,6.4164715 9.92323,13.494208 13.621,19.449 -5.651,9.62 -12.575,18.217 -19.976,26.182 -6.864,-3.455 -13.531,-7.369 -19.828,-11.534 -3.151,3.132 -6.7,5.694 -10.186,8.372 -3.425,2.751 -7.285,4.768 -10.946,7.118 1.09,8.117 1.629,16.108 1.846,24.448 -9.446,4.754 -19.519,7.906 -29.708,10.17 -4.068,-6.837 -7.788,-14.241 -11.028,-21.479 -3.842,0.642 -7.702,0.88 -11.567,0.926 v 0.006 c -0.027,0 -0.052,-0.006 -0.075,-0.006 -0.024,0 -0.049,0.006 -0.073,0.006 V 63.652 C 93.903,63.606 90.046,63.368 86.203,62.726 82.965,69.964 79.247,77.368 75.173,84.205 64.989,81.941 54.915,78.789 45.47,74.035 45.686,65.695 46.225,57.704 47.318,49.587 43.65,47.237 39.795,45.22 36.369,42.469 32.888,39.791 29.333,37.229 26.181,34.097 19.884,38.262 13.219,42.176 6.353,45.631 -1.048,37.666 -7.968,29.069 -13.621,19.449 -9.1783421,12.475308 -4.4130298,5.4661124 0,0 Z"
         fill="#478cbf"
         transform="matrix(4.162611,0,0,-4.162611,104.69892,525.90697)"
         id="path701" />
      <path
         d="m 0,0 -1.121,-16.063 c -0.135,-1.936 -1.675,-3.477 -3.611,-3.616 l -38.555,-2.751 c -0.094,-0.007 -0.188,-0.01 -0.281,-0.01 -1.916,0 -3.569,1.406 -3.852,3.33 l -2.211,14.994 H -81.09 l -2.211,-14.994 c -0.297,-2.018 -2.101,-3.469 -4.133,-3.32 l -38.555,2.751 c -1.936,0.139 -3.476,1.68 -3.611,3.616 L -130.721,0 -163.268,3.138 c 0.015,-3.498 0.06,-7.33 0.06,-8.093 0,-34.374 43.605,-50.896 97.781,-51.086 h 0.066 0.067 c 54.176,0.19 97.766,16.712 97.766,51.086 0,0.777 0.047,4.593 0.063,8.093 z"
         fill="#478cbf"
         transform="matrix(4.162611,0,0,-4.162611,784.07144,817.24284)"
         id="path703" />
      <path
         d="m 0,0 c 0,-12.052 -9.765,-21.815 -21.813,-21.815 -12.042,0 -21.81,9.763 -21.81,21.815 0,12.044 9.768,21.802 21.81,21.802 C -9.765,21.802 0,12.044 0,0"
         fill="#ffffff"
         transform="matrix(4.162611,0,0,-4.162611,389.21484,625.67104)"
         id="path705" />
      <path
         d="m 0,0 c 0,-7.994 -6.479,-14.473 -14.479,-14.473 -7.996,0 -14.479,6.479 -14.479,14.473 0,7.994 6.483,14.479 14.479,14.479 C -6.479,14.479 0,7.994 0,0"
         fill="#414042"
         transform="matrix(4.162611,0,0,-4.162611,367.36686,631.05679)"
         id="path707" />
      <path
         d="m 0,0 c -3.878,0 -7.021,2.858 -7.021,6.381 v 20.081 c 0,3.52 3.143,6.381 7.021,6.381 3.878,0 7.028,-2.861 7.028,-6.381 V 6.381 C 7.028,2.858 3.878,0 0,0"
         fill="#ffffff"
         transform="matrix(4.162611,0,0,-4.162611,511.99336,724.73954)"
         id="path709" />
      <path
         d="m 0,0 c 0,-12.052 9.765,-21.815 21.815,-21.815 12.041,0 21.808,9.763 21.808,21.815 0,12.044 -9.767,21.802 -21.808,21.802 C 9.765,21.802 0,12.044 0,0"
         fill="#ffffff"
         transform="matrix(4.162611,0,0,-4.162611,634.78706,625.67104)"
         id="path711" />
      <path
         d="m 0,0 c 0,-7.994 6.477,-14.473 14.471,-14.473 8.002,0 14.479,6.479 14.479,14.473 0,7.994 -6.477,14.479 -14.479,14.479 C 6.477,14.479 0,7.994 0,0"
         fill="#414042"
         transform="matrix(4.162611,0,0,-4.162611,656.64056,631.05679)"
         id="path713" />
    </g>
  </g>
</svg>
